<svg width="246" height="240" viewBox="0 0 246 240" fill="none" xmlns="http://www.w3.org/2000/svg">
<g clip-path="url(#clip0_147_980)">
<path d="M156.088 53.9752H89.8371C88.3273 53.977 86.88 54.5776 85.8124 55.6452C84.7448 56.7127 84.1443 58.1601 84.1424 59.6698V206.914L83.3832 207.146L67.1306 212.123C66.3604 212.358 65.5284 212.277 64.8174 211.899C64.1064 211.521 63.5743 210.877 63.3381 210.107L14.9943 52.1947C14.7591 51.4244 14.8393 50.5923 15.2173 49.8811C15.5953 49.1699 16.2402 48.6379 17.0103 48.4021L42.0554 40.7333L114.662 18.509L139.707 10.8402C140.088 10.7229 140.489 10.6819 140.886 10.7196C141.283 10.7573 141.668 10.8729 142.02 11.0597C142.373 11.2466 142.685 11.5012 142.939 11.8088C143.192 12.1163 143.383 12.471 143.5 12.8523L155.857 53.2159L156.088 53.9752Z" fill="#F2F2F2"/>
<path d="M170.545 53.2159L155.652 4.56856C155.404 3.758 154.999 3.00422 154.46 2.35027C153.92 1.69633 153.258 1.15505 152.509 0.757358C151.761 0.359666 150.941 0.113356 150.097 0.0325115C149.254 -0.0483329 148.402 0.0378727 147.592 0.286193L112.38 11.0642L39.7773 33.2923L4.56549 44.0742C2.92974 44.5764 1.5601 45.7072 0.757208 47.2183C-0.0456831 48.7294 -0.216228 50.4973 0.283014 52.134L51.1855 218.391C51.591 219.712 52.4094 220.868 53.5204 221.69C54.6314 222.512 55.9766 222.957 57.3586 222.958C57.9982 222.958 58.6342 222.862 59.2453 222.673L83.383 215.285L84.1423 215.05V214.256L83.383 214.488L59.0214 221.948C57.5775 222.388 56.018 222.238 54.685 221.53C53.352 220.821 52.3542 219.613 51.9107 218.171L1.01208 51.91C0.792304 51.1951 0.715705 50.4438 0.78667 49.6993C0.857635 48.9548 1.07476 48.2315 1.42564 47.571C1.77651 46.9105 2.25423 46.3257 2.83144 45.8501C3.40865 45.3745 4.074 45.0174 4.78941 44.7993L40.0012 34.0174L112.604 11.7932L147.816 1.01132C148.359 0.845717 148.923 0.761281 149.49 0.760752C150.708 0.763486 151.892 1.15602 152.871 1.88086C153.849 2.6057 154.569 3.62475 154.927 4.78876L169.752 53.216L169.987 53.9752H170.777L170.545 53.2159Z" fill="#3F3D56"/>
<path d="M46.5746 48.5262C45.8428 48.5257 45.1305 48.2907 44.5422 47.8557C43.9538 47.4207 43.5203 46.8086 43.3053 46.1091L38.4154 30.1369C38.284 29.7079 38.2384 29.2571 38.2812 28.8105C38.324 28.3638 38.4544 27.93 38.6649 27.5337C38.8754 27.1374 39.1619 26.7865 39.5081 26.501C39.8542 26.2155 40.2532 26.0009 40.6823 25.8696L107.476 5.42066C108.343 5.15625 109.279 5.24643 110.079 5.6714C110.879 6.09637 111.478 6.82141 111.744 7.68739L116.634 23.6598C116.898 24.5263 116.808 25.4622 116.383 26.2622C115.958 27.0623 115.233 27.6611 114.367 27.9273L47.5728 48.3762C47.2493 48.4755 46.9129 48.5261 46.5746 48.5262Z" fill="#6EA642"/>
<path d="M72.1905 17.0667C76.3839 17.0667 79.7834 13.6673 79.7834 9.47385C79.7834 5.28043 76.3839 1.881 72.1905 1.881C67.9971 1.881 64.5977 5.28043 64.5977 9.47385C64.5977 13.6673 67.9971 17.0667 72.1905 17.0667Z" fill="#6EA642"/>
<path d="M72.1903 14.2819C74.8457 14.2819 76.9984 12.1292 76.9984 9.47385C76.9984 6.81845 74.8457 4.66582 72.1903 4.66582C69.5349 4.66582 67.3823 6.81845 67.3823 9.47385C67.3823 12.1292 69.5349 14.2819 72.1903 14.2819Z" fill="white"/>
<path d="M228.786 221.018H100.467C99.6117 221.017 98.7914 220.677 98.1865 220.072C97.5815 219.467 97.2412 218.646 97.2402 217.791V64.0357C97.2412 63.1802 97.5815 62.3599 98.1864 61.755C98.7914 61.15 99.6116 60.8097 100.467 60.8088H228.786C229.642 60.8098 230.462 61.1501 231.067 61.755C231.672 62.36 232.012 63.1802 232.013 64.0357V217.791C232.012 218.646 231.672 219.467 231.067 220.072C230.462 220.677 229.642 221.017 228.786 221.018Z" fill="#E6E6E6"/>
<path d="M169.752 53.2159H89.8372C88.1263 53.2183 86.4861 53.8991 85.2763 55.1089C84.0665 56.3187 83.3857 57.9589 83.3833 59.6698V214.488L84.1426 214.256V59.6698C84.1444 58.1601 84.745 56.7127 85.8125 55.6452C86.8801 54.5776 88.3275 53.977 89.8372 53.9752H169.987L169.752 53.2159ZM239.416 53.2159H89.8372C88.1263 53.2183 86.4861 53.8991 85.2763 55.1089C84.0665 56.3187 83.3857 57.9589 83.3833 59.6698V233.546C83.3857 235.257 84.0665 236.897 85.2763 238.107C86.4861 239.317 88.1263 239.998 89.8372 240H239.416C241.127 239.998 242.767 239.317 243.977 238.107C245.187 236.897 245.868 235.257 245.87 233.546V59.6698C245.868 57.9589 245.187 56.3187 243.977 55.1089C242.767 53.8991 241.127 53.2183 239.416 53.2159ZM245.111 233.546C245.109 235.056 244.509 236.503 243.441 237.571C242.373 238.638 240.926 239.239 239.416 239.241H89.8372C88.3275 239.239 86.8801 238.638 85.8125 237.571C84.745 236.503 84.1444 235.056 84.1426 233.546V59.6698C84.1444 58.1601 84.745 56.7127 85.8125 55.6452C86.8801 54.5776 88.3275 53.977 89.8372 53.9752H239.416C240.926 53.977 242.373 54.5776 243.441 55.6452C244.509 56.7127 245.109 58.1601 245.111 59.6698V233.546Z" fill="#3F3D56"/>
<path d="M199.554 69.9202H129.699C128.794 69.9192 127.925 69.5589 127.285 68.9183C126.644 68.2778 126.284 67.4093 126.283 66.5034V49.7991C126.284 48.8933 126.644 48.0248 127.285 47.3842C127.925 46.7437 128.794 46.3834 129.699 46.3824H199.554C200.46 46.3834 201.328 46.7437 201.969 47.3842C202.609 48.0248 202.969 48.8933 202.97 49.7991V66.5034C202.969 67.4093 202.609 68.2778 201.969 68.9183C201.328 69.5589 200.46 69.9192 199.554 69.9202Z" fill="#6EA642"/>
<path d="M164.627 47.5213C168.82 47.5213 172.219 44.1219 172.219 39.9284C172.219 35.735 168.82 32.3356 164.627 32.3356C160.433 32.3356 157.034 35.735 157.034 39.9284C157.034 44.1219 160.433 47.5213 164.627 47.5213Z" fill="#6EA642"/>
<path d="M164.627 44.5532C167.181 44.5532 169.251 42.4826 169.251 39.9284C169.251 37.3743 167.181 35.3037 164.627 35.3037C162.073 35.3037 160.002 37.3743 160.002 39.9284C160.002 42.4826 162.073 44.5532 164.627 44.5532Z" fill="white"/>
</g>
<defs>
<clipPath id="clip0_147_980">
<rect width="245.87" height="240" fill="white"/>
</clipPath>
</defs>
</svg>
