<svg width="25" height="24" viewBox="0 0 25 24" fill="none" xmlns="http://www.w3.org/2000/svg">
<path d="M21.5156 7.65738C20.8462 7.93846 20.133 8.12476 19.3894 8.21522C20.1544 7.77799 20.7382 7.09092 21.0127 6.26277C20.2995 6.66984 19.512 6.95738 18.6727 7.11784C17.9955 6.42754 17.0302 6 15.9772 6C13.9342 6 12.2895 7.58738 12.2895 9.53338C12.2895 9.81338 12.3143 10.0826 12.375 10.3389C9.30713 10.1957 6.5925 8.78815 4.76887 6.644C4.4505 7.17276 4.26375 7.77799 4.26375 8.42953C4.26375 9.65291 4.92187 10.7374 5.90287 11.3652C5.31 11.3544 4.72837 11.1897 4.23562 10.9301C4.23562 10.9409 4.23562 10.9549 4.23562 10.9689C4.23562 12.6855 5.51475 14.1114 7.19213 14.4398C6.89175 14.5184 6.56438 14.5561 6.22462 14.5561C5.98837 14.5561 5.74987 14.5432 5.526 14.4958C6.00412 15.8948 7.36089 16.9232 8.97413 16.9566C7.71863 17.8968 6.1245 18.4632 4.39875 18.4632C4.09612 18.4632 3.80588 18.4503 3.51562 18.4148C5.15025 19.4238 7.0875 20 9.17663 20C15.9671 20 19.6796 14.6154 19.6796 9.94799C19.6796 9.79184 19.674 9.64107 19.6661 9.49138C20.3985 8.99384 21.0139 8.37245 21.5156 7.65738Z" fill="#1B2437"/>
</svg>
