<svg width="28" height="32" viewBox="0 0 28 32" fill="none" xmlns="http://www.w3.org/2000/svg">
<path d="M17.1111 28.8C17.1111 29.6487 16.7833 30.4626 16.1999 31.0627C15.6164 31.6629 14.8251 32 14 32C13.1749 32 12.3836 31.6629 11.8001 31.0627C11.2167 30.4626 10.8889 29.6487 10.8889 28.8H17.1111ZM14 0C14.4126 0 14.8082 0.168571 15.0999 0.468629C15.3917 0.768687 15.5556 1.17565 15.5556 1.6V3.328C19.9733 4.096 23.3333 8.048 23.3333 12.8V22.4L28 27.2H0L4.66667 22.4V12.8C4.66667 8.048 8.02667 4.096 12.4444 3.328V1.6C12.4444 1.17565 12.6083 0.768687 12.9001 0.468629C13.1918 0.168571 13.5874 0 14 0Z" fill="#818181"/>
</svg>
